<?xml version="1.0" standalone="no"?>
<!DOCTYPE svg PUBLIC "-//W3C//DTD SVG 20010904//EN"
 "http://www.w3.org/TR/2001/REC-SVG-20010904/DTD/svg10.dtd">
<svg version="1.0" xmlns="http://www.w3.org/2000/svg"
 width="512.000000pt" height="512.000000pt" viewBox="0 0 512.000000 512.000000"
 preserveAspectRatio="xMidYMid meet">
<metadata>
Created by potrace 1.15, written by Peter Selinger 2001-2017
</metadata>
<g transform="translate(0.000000,512.000000) scale(0.100000,-0.100000)"
fill="#000000" stroke="none">
<path d="M3062 4819 c-154 -30 -282 -144 -333 -297 -32 -96 -25 -223 18 -314
41 -87 108 -158 189 -200 l64 -33 -2 -305 -3 -305 -290 0 -290 0 -5 467 -5
468 -33 32 -32 33 -340 3 -339 3 -33 61 c-111 208 -356 290 -567 191 -70 -33
-179 -141 -210 -208 -36 -77 -42 -103 -42 -190 0 -130 45 -231 144 -322 208
-192 551 -130 674 122 l27 55 233 0 233 0 0 -359 0 -358 -147 -2 c-163 -1
-176 -5 -220 -71 -22 -32 -23 -39 -23 -306 l0 -274 -440 0 c-424 0 -440 1
-440 19 0 13 18 27 56 46 106 52 196 167 223 286 68 296 -192 578 -490 532
-199 -31 -349 -189 -374 -393 -8 -70 15 -183 51 -250 35 -65 117 -142 188
-177 l56 -27 0 -118 0 -117 32 -37 c58 -66 43 -64 618 -64 l520 0 0 -255 0
-255 -308 0 -308 0 -27 55 c-78 159 -224 241 -412 233 -80 -3 -101 -8 -161
-38 -329 -162 -333 -626 -6 -787 75 -37 78 -38 191 -38 110 0 120 2 183 32 87
41 158 108 200 189 l33 64 503 0 502 0 0 -360 0 -360 -232 0 -233 0 -27 58
c-15 31 -51 81 -80 110 -207 208 -567 147 -696 -118 -109 -224 -20 -476 207
-588 73 -36 78 -37 186 -37 108 0 113 1 187 38 88 43 164 118 200 198 l23 49
323 0 c359 0 376 3 413 64 18 29 19 59 19 489 l0 457 295 0 295 0 0 -308 0
-308 -35 -13 c-52 -18 -132 -83 -176 -141 -88 -117 -105 -306 -42 -443 42 -89
121 -168 210 -210 65 -30 74 -32 188 -32 114 0 123 2 188 32 89 42 168 121
210 210 27 58 32 82 35 165 5 116 -18 200 -78 279 -43 57 -123 122 -175 140
l-35 13 0 308 0 308 38 0 c50 0 102 28 129 69 22 32 23 44 23 192 l0 159 360
0 360 0 0 -369 0 -369 -57 -28 c-79 -38 -157 -118 -196 -201 -27 -58 -32 -82
-35 -165 -5 -115 12 -180 69 -269 45 -68 134 -139 212 -166 73 -25 233 -25
302 1 131 50 228 151 266 278 32 105 24 229 -21 323 -40 84 -113 159 -193 198
l-57 28 0 460 c0 515 1 508 -69 551 -36 23 -38 23 -488 26 l-453 3 0 174 0
175 545 2 545 3 37 38 38 37 3 193 4 192 59 28 c78 38 150 111 191 194 32 65
33 73 33 188 0 114 -2 123 -32 187 -44 94 -109 160 -202 206 -74 37 -77 37
-195 37 -115 0 -124 -2 -186 -31 -170 -82 -258 -232 -248 -422 7 -129 34 -190
122 -278 45 -45 88 -77 118 -90 l48 -19 0 -87 0 -88 -440 0 -440 0 0 143 c0
123 -3 146 -20 174 -26 43 -64 66 -119 73 l-46 5 -3 305 -2 305 64 33 c81 42
148 113 189 200 43 91 50 218 18 314 -71 213 -284 340 -499 297z m158 -306
c35 -21 70 -81 70 -122 0 -64 -60 -134 -123 -146 -44 -9 -112 19 -139 57 -30
44 -35 114 -9 156 42 67 137 93 201 55z m-1880 -178 c35 -33 54 -93 45 -137
-10 -43 -61 -96 -104 -108 -66 -17 -136 14 -165 73 -33 70 -10 146 56 188 49
30 128 22 168 -16z m3226 -651 c73 -35 106 -136 65 -202 -79 -125 -271 -73
-271 73 0 110 106 176 206 129z m-3801 -384 c110 -53 104 -212 -10 -256 -170
-64 -277 177 -115 258 45 23 74 23 125 -2z m5 -1422 c80 -55 98 -135 45 -203
-65 -86 -180 -82 -235 8 -74 120 75 273 190 195z m3653 -884 c32 -23 67 -84
67 -115 0 -38 -38 -103 -72 -124 -43 -25 -121 -24 -157 2 -33 24 -61 79 -61
118 0 44 30 96 70 123 42 28 112 27 153 -4z m-3118 -118 c69 -29 99 -116 66
-190 -17 -38 -29 -51 -67 -67 -105 -47 -211 23 -201 132 9 105 106 165 202
125z m1899 -160 c49 -20 81 -71 81 -128 0 -112 -132 -184 -222 -120 -87 62
-79 174 17 240 38 25 76 28 124 8z"/>
</g>
</svg>
